<svg width="448" height="448" viewBox="0 0 448 448" fill="none" xmlns="http://www.w3.org/2000/svg">
<path d="M92.6953 194.622C91.494 195.476 90.1689 195.965 88.7233 195.965V196.919H96.4986V195.965C95.1597 195.965 93.8793 195.472 92.6953 194.622ZM212.144 188.786C210.093 168.576 203.557 151.822 194.136 138.787C184.857 125.942 172.779 116.703 159.431 111.323C150.324 107.654 140.624 105.777 130.825 105.777C130.825 105.674 132.608 105.339 135.392 104.537C145.326 101.674 168.012 92.8422 168.012 67.1279C168.012 46.5495 152.76 36.0123 138.456 31.8373C137.169 31.4619 135.892 31.1381 134.635 30.8625C126.061 29.0575 105.09 28.1033 88.7164 28.0069C87.8008 28.0034 86.8956 28 86.0076 28H59.7835V28.9576C63.1221 28.9576 65.504 30.866 67.4142 34.2038C69.3211 38.0205 70.7495 43.2702 70.7495 49.9494V121.051C56.4482 125.821 43.097 134.409 31.6525 145.862C14.0126 163.995 4 188.807 4 213.619C4 238.909 13.5376 262.767 30.6991 280.9C49.2924 299.987 74.5631 310.007 103.648 310.007C108.212 310.007 112.817 309.687 117.422 309.056C118.62 308.895 119.821 308.712 121.019 308.502C167.588 300.517 212.836 261.203 212.836 202.644C212.836 197.859 212.599 193.24 212.144 188.786ZM86.0076 31.3413C86.7923 31.3413 89.9142 31.3034 94.2579 31.3517C99.9061 31.4137 107.619 31.6134 114.944 32.2128C122.502 32.8329 129.648 33.8766 133.685 35.6368C146.08 40.4077 152.757 49.9494 152.757 67.1313C152.757 83.831 144.173 93.8515 132.253 99.58C127.146 101.733 120.974 102.973 114.94 103.734C110.273 104.32 105.689 104.623 101.737 104.83H86.0041V31.3413H86.0076ZM117.842 308.151C116.6 308.312 115.34 308.454 114.063 308.574C110.71 308.888 107.241 309.05 103.647 309.05C74.5631 309.05 49.7709 299.029 31.1775 279.942C14.491 262.292 4.95342 238.909 4.95342 213.619C4.95342 189.286 14.966 164.47 32.6059 146.817C43.5719 135.363 56.4482 127.251 70.7495 122.48V174.97C70.7495 182.128 69.3211 187.374 66.9358 191.194C65.0255 194.057 62.6437 195.965 59.7835 195.965V196.919H96.4951V195.965C95.1597 195.965 93.8758 195.472 92.6918 194.622C88.8059 191.835 86.0041 185.228 86.0041 179.741V119.139C89.8178 118.185 93.6349 118.185 97.9236 118.185V117.23C93.6349 117.23 89.8178 117.23 86.0041 117.706V108.643H106.029C108.989 108.643 111.963 108.757 114.94 108.987C117.264 109.166 119.587 109.421 121.904 109.749C130.687 110.992 139.378 113.314 147.567 116.865C175.494 128.98 197.575 155.408 197.575 202.165C197.578 242.554 177.78 300.283 117.842 308.151Z" fill="black"/>
<path d="M444 412.413V413.368C422.543 421.004 400.611 421.48 380.111 417.663C336.247 409.075 306.209 384.26 279.506 329.387C252.842 273.787 253.217 273.759 235.942 237.6C233.088 231.627 229.753 224.669 225.736 216.312C226.266 211.442 226.514 206.695 226.514 202.165C226.514 193.65 225.781 185.81 224.415 178.611C228.159 185.211 231.901 192.293 235.642 200.071C237.552 203.998 239.466 207.945 241.383 211.917C256.734 243.663 272.461 276.79 288.565 310.297L346.259 166.668L346.734 165.714H372.48V166.668C366.759 166.668 361.989 171.439 361.989 177.167C361.989 177.167 368.188 289.301 371.048 334.158C372.001 349.424 377.247 358.015 382.014 358.015H382.489V358.97H344.827V358.015C350.548 358.015 356.747 349.424 356.268 333.679L347.209 175.259V174.784L290.476 314.592L301.917 338.45C322.895 382.348 351.501 409.072 382.496 415.751C402.043 420.047 420.636 419.568 444 412.413Z" fill="black"/>
</svg>
